<?xml version="1.0" encoding="UTF-8" standalone="no"?>
<!DOCTYPE svg PUBLIC "-//W3C//DTD SVG 1.1//EN" "http://www.w3.org/Graphics/SVG/1.1/DTD/svg11.dtd">
<svg width="100%" height="100%" viewBox="0 0 300 400" version="1.1" xmlns="http://www.w3.org/2000/svg" xmlns:xlink="http://www.w3.org/1999/xlink" xml:space="preserve" style="fill-rule:evenodd;clip-rule:evenodd;stroke-linejoin:round;stroke-miterlimit:1.41421;">
    <rect id="Artboard1" x="0" y="0" width="300" height="400" style="fill:none;"/>
    <clipPath id="_clip1">
        <rect id="Artboard11" x="0" y="0" width="300" height="400"/>
    </clipPath>
    <g clip-path="url(#_clip1)">
        <g id="XMLID_3_" transform="matrix(0.505354,0,0,0.505354,14.4135,-61.6269)">
            <circle cx="268.3" cy="421.5" r="268.7" style="fill:rgb(121,132,192);"/>
        </g>
        <g id="XMLID_34_" transform="matrix(0.505354,0,0,0.505354,14.4135,-61.6269)">
            <path d="M394.4,619.9C396.3,621.9 398.1,623.7 399.8,625.4C399.6,625.9 399.4,626.4 399.2,626.8C394.9,627.4 390.6,628.5 386.3,628.6C372.4,629.1 358.5,629.2 344.7,629.4C325,629.7 305.2,630.1 285.5,630.1C270.7,630.1 255.9,629.7 241.1,629.5C231.8,629.4 222.5,629.6 213.2,629.3C209.6,629.2 206,628.3 202.5,627.7C194.2,626.1 186.3,626.9 178.6,630.6C170.1,634.8 161.3,632.7 152.6,631.4C152,631.3 151.6,629.4 150.8,627.6C145.3,627 139,626.4 132.7,625.5C129.8,625.1 126.9,624.3 124.1,623.2C123,622.8 121.4,621.3 121.6,620.5C121.8,619.2 123,617.6 124.2,617.1C126.4,616.1 128.8,615.9 131.8,615.1C129.9,614 128.4,612.9 126.8,612.3C109.8,605.6 107.9,588.3 112.2,576C116.1,565 123.1,557.2 135.3,555.4C135.7,555.3 136.1,555.4 136.4,555.2C142.3,551.5 148.4,548.1 153.9,543.9C155.8,542.4 156.8,539.1 157.2,536.4C159.2,523.6 160.7,510.7 162.9,497.9C163.7,492.8 165.2,487.7 167.5,483.1C173.4,471.5 174.6,459.2 175.4,446.6C176.7,425.2 178.5,403.9 180,382.6C181.1,367.7 188.6,357.6 202.5,352.5C210.6,349.5 219,347.1 227.1,344.1C232.4,342.1 237.7,340 242.7,337.2C249.1,333.6 251.4,326.7 248.6,320C247.4,322.1 246.5,323.7 245.7,325.3C245,326.7 244.9,328.6 243.8,329.5C242.2,330.7 240,331.6 238.1,331.7C237,331.7 235.3,330.1 234.7,328.8C233.8,327 233.2,324.8 233.2,322.8C233.3,315.4 230.2,309.3 226.2,303.4C222.2,297.5 218.3,291.5 217.9,284C217.7,280.2 217.6,276.5 221.5,274C222.3,273.5 222.4,271.3 222.2,270C219,255.1 219.4,240.6 226.2,226.7C227.3,224.4 229.4,222.4 231.4,220.7C234.4,218.2 237.9,216.4 240.8,213.8C243.1,211.8 245.5,209.3 246.5,206.6C248.7,200.7 254.4,199.2 258.6,195.1C259.4,186 262.8,185.7 269.6,186C272.8,186.1 275.4,188.2 275.4,191.3C275.4,196.7 279.3,197.6 282.9,199.2C283.9,199.7 284.8,200.5 285.5,201.3C286.5,202.4 287.4,203.7 288.3,204.9C288.8,205.5 289.8,205.9 289.9,206.5C291.2,212 296.5,213 300.3,215.8C308.3,221.7 312.5,230.1 313.7,239.6C314.9,248.4 314.6,257.4 314.8,266.3C314.9,269.1 314.1,271.9 318.5,271.8C319.3,271.8 320.5,273.7 320.8,274.9C322.6,281.5 322.3,288 319.5,294.3C317.5,298.7 315.3,302.9 313,307.1C309.1,314.1 306.3,321.4 306.2,329.5C306.2,330.3 305.1,331.9 304.5,331.9C302.1,331.9 299.5,331.9 297.3,331.1C296.2,330.7 295.6,328.6 294.4,327.5C295.4,330.1 296.2,332.8 297.5,335.3C297.8,336 299.5,336.3 300.5,336.2C307,336 312.3,338.4 317.1,342.7C318.3,343.8 319.9,344.5 321.5,344.9C333.7,348.1 345.1,353 353.4,363C360.6,371.7 363.9,381.9 364.7,393.1C364.9,396.2 365.2,399.1 367.4,401.7C368.7,403.3 369.6,406.2 369.2,408.2C367.1,419.4 370.3,429.8 373,440.3C375.3,449.5 377.4,458.7 379,468C381.1,480.7 376.9,490.9 366.2,498.3C360.1,502.5 354.2,507 348.7,511.9C346.3,514 344.8,517.3 343.5,520.4C342.1,523.8 342.6,527.2 345.1,530.2C346.6,532.1 349.1,533.9 346.9,537C346.7,537.4 348,539.5 348.9,539.9C352.5,541.3 356.1,542.9 359.9,543.5C366.9,544.7 373.5,546.4 379.3,550.8C381.3,552.3 384,552.8 386.4,553.7C387.3,554.1 388.4,554.2 389.1,554.9C393.4,559 397.8,563.1 401.8,567.5C415.6,583.2 413.8,608.7 394.4,619.9ZM192.2,534.8C196.2,534.2 199.6,533.7 203.1,533.1C203.7,533 204.4,532.5 204.9,532C207.3,529.4 209.6,526.5 212.2,524C215.8,520.4 217.7,516.5 215.7,511.5C214,507.3 215.4,503.9 217.9,500.4C223,493.4 227.6,486.1 232.2,478.8C232.8,477.9 232.8,476.6 232.7,475.5C232.4,464.3 230.3,453.4 225.7,443.1C223.7,438.7 220.7,434.6 222.6,429.2C222.9,428.4 220.9,426.8 220,425.6C219.1,426.5 217.7,427.3 217.5,428.3C215,440.6 212.3,452.8 210.4,465.2C208.7,476.3 208.2,487.6 207,498.8C206,508.6 201.4,517 196.9,525.5C195.3,528.5 193.8,531.7 192.2,534.8ZM326.5,420.6C325.9,420.6 325.2,420.6 324.6,420.7C321.4,434.8 317.8,448.8 315.1,463C313.5,471.4 315,479.7 320.7,486.8C325.5,484.1 330.1,481.8 334.5,479C339.6,475.8 340.5,472.9 339.1,467.2C338.8,465.8 338.2,464.4 338.2,463C338.3,460.2 337.3,458.3 334.9,456.5C332.8,455 330.7,452.6 332,449.6C337.1,438.4 329.5,430 326.5,420.6Z" style="fill-opacity:0.65;fill-rule:nonzero;"/>
        </g>
        <g transform="matrix(1,0,0,1,7.39255,0)">
            <text x="45px" y="349.367px" style="font-family:'Roboto-Thin', 'Roboto';font-weight:250;font-size:77.048px;fill:rgb(43,47,68);">Y<tspan x="89.919px " y="349.367px ">O</tspan>GA</text>
        </g>
    </g>
</svg>
